<?xml version="1.0" encoding="UTF-8" standalone="no"?>
<svg
   xmlns:dc="http://purl.org/dc/elements/1.1/"
   xmlns:cc="http://creativecommons.org/ns#"
   xmlns:rdf="http://www.w3.org/1999/02/22-rdf-syntax-ns#"
   xmlns:svg="http://www.w3.org/2000/svg"
   xmlns="http://www.w3.org/2000/svg"
   xmlns:sodipodi="http://sodipodi.sourceforge.net/DTD/sodipodi-0.dtd"
   xmlns:inkscape="http://www.inkscape.org/namespaces/inkscape"
   width="190.95691mm"
   height="165.22655mm"
   viewBox="0 0 190.95691 165.22655"
   version="1.1"
   id="svg1140"
   inkscape:version="1.0.2 (e86c8708, 2021-01-15)"
   sodipodi:docname="paw.svg">
  <defs
     id="defs1134" />
  <sodipodi:namedview
     id="base"
     pagecolor="#ffffff"
     bordercolor="#666666"
     borderopacity="1.0"
     inkscape:pageopacity="0.0"
     inkscape:pageshadow="2"
     inkscape:zoom="0.44382422"
     inkscape:cx="360.48231"
     inkscape:cy="322.20536"
     inkscape:document-units="mm"
     inkscape:current-layer="layer1"
     inkscape:document-rotation="0"
     showgrid="false"
     inkscape:window-width="1252"
     inkscape:window-height="847"
     inkscape:window-x="0"
     inkscape:window-y="25"
     inkscape:window-maximized="0" />
  <metadata
     id="metadata1137">
    <rdf:RDF>
      <cc:Work
         rdf:about="">
        <dc:format>image/svg+xml</dc:format>
        <dc:type
           rdf:resource="http://purl.org/dc/dcmitype/StillImage" />
        <dc:title />
      </cc:Work>
    </rdf:RDF>
  </metadata>
  <g
     inkscape:label="Layer 1"
     inkscape:groupmode="layer"
     id="layer1"
     transform="translate(-9.6223876,-63.249831)">
    <path
       d="m 162.85886,201.55808 c 0,-33.08908 -26.03598,-83.56276 -58.15455,-83.56276 -32.118568,0 -58.156024,50.47368 -58.156024,83.56276 0,0.50604 0.0059,1.00618 0.01787,1.50037 0.500022,20.28699 22.216818,31.96378 39.105516,21.51882 5.561808,-3.44023 12.070988,-5.41929 19.032708,-5.41929 6.96024,0 13.47016,1.97906 19.03196,5.41929 16.88869,10.44496 38.60624,-1.23183 39.10477,-21.51882 0.0126,-0.49419 0.0179,-0.99433 0.0179,-1.50037"
       style="fill:#c4dcff;fill-opacity:1;fill-rule:nonzero;stroke:none;stroke-width:0.0740852"
       id="path969"
       inkscape:export-xdpi="309.47"
       inkscape:export-ydpi="309.47" />
    <path
       d="m 53.619062,142.83154 c 0,14.52147 -9.849825,26.29295 -21.997967,26.29295 -12.148883,0 -21.9987074,-11.77148 -21.9987074,-26.29295 0,-14.52072 9.8498244,-26.29296 21.9987074,-26.29296 12.148142,0 21.997967,11.77224 21.997967,26.29296"
       style="fill:#c4dcff;fill-opacity:1;fill-rule:nonzero;stroke:none;stroke-width:0.0740852"
       id="path971"
       inkscape:export-xdpi="309.47"
       inkscape:export-ydpi="309.47" />
    <path
       d="m 99.431094,89.542787 c 0,14.521463 -9.849083,26.292953 -21.998708,26.292953 -12.148883,0 -21.997966,-11.77149 -21.997966,-26.292953 0,-14.52072 9.849083,-26.292956 21.997966,-26.292956 12.149625,0 21.998708,11.772236 21.998708,26.292956"
       style="fill:#c4dcff;fill-opacity:1;fill-rule:nonzero;stroke:none;stroke-width:0.0740852"
       id="path973"
       inkscape:export-xdpi="309.47"
       inkscape:export-ydpi="309.47" />
    <path
       d="m 156.58263,142.83154 c 0,14.52147 9.84908,26.29295 21.99796,26.29295 12.14963,0 21.99871,-11.77148 21.99871,-26.29295 0,-14.52072 -9.84908,-26.29296 -21.99871,-26.29296 -12.14888,0 -21.99796,11.77224 -21.99796,26.29296"
       style="fill:#c4dcff;fill-opacity:1;fill-rule:nonzero;stroke:none;stroke-width:0.0740852"
       id="path975"
       inkscape:export-xdpi="309.47"
       inkscape:export-ydpi="309.47" />
    <path
       d="m 111.40934,89.542787 c 0,14.521463 9.84909,26.292953 21.99797,26.292953 12.14888,0 21.99796,-11.77149 21.99796,-26.292953 0,-14.52072 -9.84908,-26.292956 -21.99796,-26.292956 -12.14888,0 -21.99797,11.772236 -21.99797,26.292956"
       style="fill:#c4dcff;fill-opacity:1;fill-rule:nonzero;stroke:none;stroke-width:0.0740852"
       id="path977"
       inkscape:export-xdpi="309.47"
       inkscape:export-ydpi="309.47" />
    <g
       id="g1769"
       style="fill:#aaccff"
       inkscape:export-xdpi="309.47"
       inkscape:export-ydpi="309.47"
       transform="matrix(2.102942,0,0,2.0971668,-9.3592781,20.619814)">
      <path
         d="m 69.76435,99.112589 h -0.118887 c -2.13113,-0.0106 -4.317294,-0.59513 -6.355292,-1.85913 -1.647825,-1.022 -3.470628,-1.77342 -5.411258,-2.19499 -1.174045,-0.2547 -2.391128,-0.38876 -3.638903,-0.38876 v 0 c -3.53e-4,0 -3.53e-4,0 -3.53e-4,0 -3.309761,0 -6.405387,0.94368 -9.050162,2.58375 -2.053872,1.27388 -4.256969,1.85772 -6.403975,1.85913 h -0.02258 c -3.359856,-0.004 -6.578953,-1.43263 -8.861778,-3.87385 42.703047,-3.5e-4 38.123991,-41.471851 38.123991,-41.471851 8.207376,7.924801 13.75904,21.645391 13.867343,32.197321 0,7.1e-4 0,0.003 0,0.004 0,0.0194 3.52e-4,0.0388 3.52e-4,0.0582 0,0.003 0,0.004 0,0.007 3.53e-4,0.008 3.53e-4,0.0141 3.53e-4,0.0219 0,0.003 0,0.005 0,0.008 0,0.008 0,0.018 3.53e-4,0.0265 0,10e-4 0,3.5e-4 0,10e-4 0,0.009 0,0.0183 0,0.0275 0,0.003 0,0.007 0,0.01 0,0.006 0,0.0127 0,0.019 3.53e-4,0.003 3.53e-4,0.007 3.53e-4,0.01 0,0.018 0,0.0374 0,0.0554 0,0.003 0,0.005 0,0.008 0,0.007 0,0.0145 0,0.0215 0,0.002 0,0.005 0,0.007 0,0.01 0,0.0187 0,0.0286 0,0.2413 -0.0025,0.47978 -0.0085,0.71543 -0.03387,1.38395 -0.274108,2.68323 -0.684742,3.88021 -0.186266,0.54292 -0.407458,1.06468 -0.6604,1.56351 -0.161219,0.3175 -0.335139,0.62618 -0.5207,0.92463 -2.214386,3.55741 -6.125281,5.73087 -10.25525,5.75133"
         style="fill:#aaccff;fill-opacity:1;fill-rule:nonzero;stroke:none;stroke-width:0.0352778"
         id="path993" />
    </g>
  </g>
</svg>
